<svg width="391" height="214" viewBox="0 0 391 214" fill="none" xmlns="http://www.w3.org/2000/svg">
<path d="M10.008 84.58H3.096L1.62 88H0.468L6.048 75.184H7.056L12.618 88H11.466L10.008 84.58ZM9.576 83.608L6.552 76.534L3.51 83.608H9.576ZM18.7841 78.766C19.5761 78.766 20.2781 78.958 20.8901 79.342C21.5021 79.726 21.9701 80.266 22.2941 80.962C22.6301 81.658 22.7981 82.474 22.7981 83.41C22.7981 84.346 22.6301 85.174 22.2941 85.894C21.9581 86.602 21.4841 87.154 20.8721 87.55C20.2721 87.934 19.5761 88.126 18.7841 88.126C18.0401 88.126 17.3981 87.964 16.8581 87.64C16.3301 87.316 15.9341 86.848 15.6701 86.236V88H14.5721V74.752H15.6521V80.674C15.9161 80.05 16.3181 79.576 16.8581 79.252C17.3981 78.928 18.0401 78.766 18.7841 78.766ZM18.6581 87.154C19.5941 87.154 20.3261 86.824 20.8541 86.164C21.3821 85.504 21.6461 84.586 21.6461 83.41C21.6461 82.246 21.3821 81.34 20.8541 80.692C20.3261 80.044 19.5881 79.72 18.6401 79.72C17.6921 79.72 16.9601 80.044 16.4441 80.692C15.9281 81.34 15.6701 82.258 15.6701 83.446C15.6701 84.634 15.9281 85.552 16.4441 86.2C16.9601 86.836 17.6981 87.154 18.6581 87.154ZM28.7889 88.126C27.9609 88.126 27.2289 87.934 26.5929 87.55C25.9689 87.166 25.4829 86.62 25.1349 85.912C24.7989 85.204 24.6309 84.382 24.6309 83.446C24.6309 82.51 24.7989 81.688 25.1349 80.98C25.4829 80.272 25.9689 79.726 26.5929 79.342C27.2289 78.958 27.9609 78.766 28.7889 78.766C29.6049 78.766 30.3249 78.958 30.9489 79.342C31.5729 79.726 32.0529 80.272 32.3889 80.98C32.7369 81.688 32.9109 82.51 32.9109 83.446C32.9109 84.382 32.7369 85.204 32.3889 85.912C32.0529 86.62 31.5729 87.166 30.9489 87.55C30.3249 87.934 29.6049 88.126 28.7889 88.126ZM28.7709 87.154C29.7309 87.154 30.4689 86.836 30.9849 86.2C31.5129 85.552 31.7769 84.634 31.7769 83.446C31.7769 82.27 31.5129 81.358 30.9849 80.71C30.4569 80.05 29.7249 79.72 28.7889 79.72C27.8409 79.72 27.1029 80.05 26.5749 80.71C26.0469 81.358 25.7829 82.27 25.7829 83.446C25.7829 84.646 26.0409 85.564 26.5569 86.2C27.0729 86.836 27.8109 87.154 28.7709 87.154ZM42.5683 78.982V88H41.5063V86.362C41.2183 86.938 40.8103 87.376 40.2823 87.676C39.7543 87.976 39.1483 88.126 38.4643 88.126C37.4083 88.126 36.6103 87.832 36.0703 87.244C35.5303 86.656 35.2603 85.786 35.2603 84.634V78.982H36.3403V84.562C36.3403 85.45 36.5203 86.104 36.8803 86.524C37.2403 86.944 37.7983 87.154 38.5543 87.154C39.4423 87.154 40.1503 86.878 40.6783 86.326C41.2063 85.762 41.4703 85.018 41.4703 84.094V78.982H42.5683ZM47.0924 79.864V85.228C47.0924 85.948 47.2304 86.446 47.5064 86.722C47.7824 86.998 48.1904 87.136 48.7304 87.136C49.0664 87.136 49.3904 87.082 49.7024 86.974V87.964C49.3184 88.06 48.9284 88.108 48.5324 88.108C47.7404 88.108 47.1164 87.886 46.6604 87.442C46.2164 86.998 45.9944 86.332 45.9944 85.444V79.864H44.2124V78.982H45.9944V76.588L47.0924 76.174V78.982H49.7564V79.864H47.0924ZM4.806 114.156H0.216V113.184H10.512V114.156H5.922V126H4.806V114.156ZM11.4216 121.356V121.41C11.4216 122.622 11.6976 123.552 12.2496 124.2C12.8136 124.836 13.6296 125.154 14.6976 125.154C15.7776 125.154 16.7676 124.782 17.6676 124.038L18.0996 124.902C17.7036 125.274 17.1996 125.574 16.5876 125.802C15.9756 126.018 15.3456 126.126 14.6976 126.126C13.3296 126.126 12.2496 125.712 11.4576 124.884C10.6656 124.056 10.2696 122.916 10.2696 121.464C10.2696 120.54 10.4436 119.724 10.7916 119.016C11.1516 118.296 11.6496 117.744 12.2856 117.36C12.9216 116.964 13.6536 116.766 14.4816 116.766C15.6696 116.766 16.5936 117.15 17.2536 117.918C17.9256 118.686 18.2616 119.754 18.2616 121.122V121.356H11.4216ZM14.4816 117.666C13.6536 117.666 12.9816 117.918 12.4656 118.422C11.9496 118.914 11.6256 119.61 11.4936 120.51H17.2176C17.1456 119.586 16.8756 118.884 16.4076 118.404C15.9396 117.912 15.2976 117.666 14.4816 117.666ZM23.553 126.126C22.089 126.126 20.931 125.724 20.079 124.92L20.475 124.074C20.955 124.47 21.435 124.752 21.915 124.92C22.407 125.088 22.971 125.172 23.607 125.172C24.351 125.172 24.915 125.046 25.299 124.794C25.695 124.53 25.893 124.152 25.893 123.66C25.893 123.252 25.761 122.934 25.497 122.706C25.245 122.466 24.825 122.274 24.237 122.13L22.707 121.788C21.987 121.62 21.417 121.32 20.997 120.888C20.589 120.456 20.385 119.952 20.385 119.376C20.385 118.584 20.685 117.954 21.285 117.486C21.897 117.006 22.707 116.766 23.715 116.766C24.351 116.766 24.939 116.868 25.479 117.072C26.031 117.276 26.487 117.57 26.847 117.954L26.433 118.8C25.605 118.08 24.699 117.72 23.715 117.72C23.019 117.72 22.479 117.858 22.095 118.134C21.711 118.41 21.519 118.794 21.519 119.286C21.519 119.694 21.639 120.024 21.879 120.276C22.131 120.528 22.515 120.714 23.031 120.834L24.579 121.212C26.199 121.572 27.009 122.37 27.009 123.606C27.009 124.362 26.697 124.974 26.073 125.442C25.449 125.898 24.609 126.126 23.553 126.126ZM30.9556 117.864V123.228C30.9556 123.948 31.0936 124.446 31.3696 124.722C31.6456 124.998 32.0536 125.136 32.5936 125.136C32.9296 125.136 33.2536 125.082 33.5656 124.974V125.964C33.1816 126.06 32.7916 126.108 32.3956 126.108C31.6036 126.108 30.9796 125.886 30.5236 125.442C30.0796 124.998 29.8576 124.332 29.8576 123.444V117.864H28.0756V116.982H29.8576V114.588L30.9556 114.174V116.982H33.6196V117.864H30.9556ZM35.4901 116.982H36.5701V126H35.4901V116.982ZM36.7861 113.256V114.66H35.3281V113.256H36.7861ZM49.3058 116.766C51.2978 116.766 52.2938 117.93 52.2938 120.258V126H51.1958V120.33C51.1958 119.418 51.0338 118.758 50.7098 118.35C50.3858 117.93 49.8698 117.72 49.1618 117.72C48.3338 117.72 47.6798 117.996 47.1998 118.548C46.7318 119.1 46.4978 119.85 46.4978 120.798V126H45.3998V120.33C45.3998 119.418 45.2318 118.758 44.8958 118.35C44.5718 117.93 44.0558 117.72 43.3478 117.72C42.5318 117.72 41.8778 117.996 41.3858 118.548C40.9058 119.1 40.6658 119.85 40.6658 120.798V126H39.5858V119.484C39.5858 118.548 39.5378 117.714 39.4418 116.982H40.4858L40.6298 118.602C40.8818 118.002 41.2538 117.546 41.7458 117.234C42.2498 116.922 42.8318 116.766 43.4918 116.766C44.9438 116.766 45.8738 117.354 46.2818 118.53C46.5338 117.978 46.9238 117.546 47.4518 117.234C47.9918 116.922 48.6098 116.766 49.3058 116.766ZM58.8123 126.126C57.9843 126.126 57.2523 125.934 56.6163 125.55C55.9923 125.166 55.5063 124.62 55.1583 123.912C54.8223 123.204 54.6543 122.382 54.6543 121.446C54.6543 120.51 54.8223 119.688 55.1583 118.98C55.5063 118.272 55.9923 117.726 56.6163 117.342C57.2523 116.958 57.9843 116.766 58.8123 116.766C59.6283 116.766 60.3483 116.958 60.9723 117.342C61.5963 117.726 62.0763 118.272 62.4123 118.98C62.7603 119.688 62.9343 120.51 62.9343 121.446C62.9343 122.382 62.7603 123.204 62.4123 123.912C62.0763 124.62 61.5963 125.166 60.9723 125.55C60.3483 125.934 59.6283 126.126 58.8123 126.126ZM58.7943 125.154C59.7543 125.154 60.4923 124.836 61.0083 124.2C61.5363 123.552 61.8003 122.634 61.8003 121.446C61.8003 120.27 61.5363 119.358 61.0083 118.71C60.4803 118.05 59.7483 117.72 58.8123 117.72C57.8643 117.72 57.1263 118.05 56.5983 118.71C56.0703 119.358 55.8063 120.27 55.8063 121.446C55.8063 122.646 56.0643 123.564 56.5803 124.2C57.0963 124.836 57.8343 125.154 58.7943 125.154ZM69.5318 116.766C71.7038 116.766 72.7898 117.93 72.7898 120.258V126H71.6918V120.33C71.6918 119.43 71.5058 118.77 71.1338 118.35C70.7738 117.93 70.2038 117.72 69.4238 117.72C68.5238 117.72 67.7978 117.996 67.2458 118.548C66.6938 119.1 66.4178 119.844 66.4178 120.78V126H65.3378V119.484C65.3378 118.548 65.2898 117.714 65.1938 116.982H66.2378L66.3818 118.638C66.6578 118.026 67.0718 117.564 67.6238 117.252C68.1758 116.928 68.8118 116.766 69.5318 116.766ZM75.744 116.982H76.824V126H75.744V116.982ZM77.04 113.256V114.66H75.582V113.256H77.04ZM87.4897 116.982V126H86.3917V124.272C86.1277 124.872 85.7257 125.334 85.1857 125.658C84.6577 125.97 84.0217 126.126 83.2777 126.126C82.4737 126.126 81.7657 125.94 81.1537 125.568C80.5537 125.184 80.0857 124.644 79.7497 123.948C79.4257 123.24 79.2637 122.418 79.2637 121.482C79.2637 120.546 79.4317 119.724 79.7677 119.016C80.1037 118.296 80.5717 117.744 81.1717 117.36C81.7837 116.964 82.4857 116.766 83.2777 116.766C84.0097 116.766 84.6397 116.922 85.1677 117.234C85.7077 117.546 86.1157 118.002 86.3917 118.602V116.982H87.4897ZM83.4397 125.154C84.3757 125.154 85.1017 124.83 85.6177 124.182C86.1337 123.534 86.3917 122.622 86.3917 121.446C86.3917 120.258 86.1337 119.34 85.6177 118.692C85.1017 118.044 84.3697 117.72 83.4217 117.72C82.4737 117.72 81.7357 118.056 81.2077 118.728C80.6797 119.388 80.4157 120.306 80.4157 121.482C80.4157 122.646 80.6797 123.552 81.2077 124.2C81.7357 124.836 82.4797 125.154 83.4397 125.154ZM90.4745 112.752H91.5545V126H90.4745V112.752ZM97.5042 126.126C96.0402 126.126 94.8822 125.724 94.0302 124.92L94.4262 124.074C94.9062 124.47 95.3862 124.752 95.8662 124.92C96.3582 125.088 96.9222 125.172 97.5582 125.172C98.3022 125.172 98.8662 125.046 99.2502 124.794C99.6462 124.53 99.8442 124.152 99.8442 123.66C99.8442 123.252 99.7122 122.934 99.4482 122.706C99.1962 122.466 98.7762 122.274 98.1882 122.13L96.6582 121.788C95.9382 121.62 95.3682 121.32 94.9482 120.888C94.5402 120.456 94.3362 119.952 94.3362 119.376C94.3362 118.584 94.6362 117.954 95.2362 117.486C95.8482 117.006 96.6582 116.766 97.6662 116.766C98.3022 116.766 98.8902 116.868 99.4302 117.072C99.9822 117.276 100.438 117.57 100.798 117.954L100.384 118.8C99.5562 118.08 98.6502 117.72 97.6662 117.72C96.9702 117.72 96.4302 117.858 96.0462 118.134C95.6622 118.41 95.4702 118.794 95.4702 119.286C95.4702 119.694 95.5902 120.024 95.8302 120.276C96.0822 120.528 96.4662 120.714 96.9822 120.834L98.5302 121.212C100.15 121.572 100.96 122.37 100.96 123.606C100.96 124.362 100.648 124.974 100.024 125.442C99.4002 125.898 98.5602 126.126 97.5042 126.126ZM1.656 151.184H9.378V152.138H2.772V156.998H9.018V157.988H2.772V164H1.656V151.184ZM11.5311 154.982H12.6111V164H11.5311V154.982ZM12.8271 151.256V152.66H11.3691V151.256H12.8271ZM19.8208 154.766C21.9928 154.766 23.0788 155.93 23.0788 158.258V164H21.9808V158.33C21.9808 157.43 21.7948 156.77 21.4228 156.35C21.0628 155.93 20.4928 155.72 19.7128 155.72C18.8128 155.72 18.0868 155.996 17.5348 156.548C16.9828 157.1 16.7068 157.844 16.7068 158.78V164H15.6268V157.484C15.6268 156.548 15.5788 155.714 15.4828 154.982H16.5268L16.6708 156.638C16.9468 156.026 17.3608 155.564 17.9128 155.252C18.4648 154.928 19.1008 154.766 19.8208 154.766ZM33.6831 150.752V164H32.5851V162.272C32.3211 162.872 31.9191 163.334 31.3791 163.658C30.8511 163.97 30.2151 164.126 29.4711 164.126C28.6791 164.126 27.9771 163.934 27.3651 163.55C26.7651 163.154 26.2971 162.602 25.9611 161.894C25.6251 161.174 25.4571 160.346 25.4571 159.41C25.4571 158.474 25.6191 157.658 25.9431 156.962C26.2791 156.254 26.7471 155.714 27.3471 155.342C27.9591 154.958 28.6671 154.766 29.4711 154.766C30.2031 154.766 30.8331 154.922 31.3611 155.234C31.9011 155.546 32.3091 156.002 32.5851 156.602V150.752H33.6831ZM29.6151 163.154C30.5631 163.154 31.2951 162.83 31.8111 162.182C32.3271 161.534 32.5851 160.622 32.5851 159.446C32.5851 158.27 32.3271 157.358 31.8111 156.71C31.2951 156.05 30.5691 155.72 29.6331 155.72C28.6731 155.72 27.9291 156.044 27.4011 156.692C26.8731 157.34 26.6091 158.246 26.6091 159.41C26.6091 160.586 26.8731 161.504 27.4011 162.164C27.9291 162.824 28.6671 163.154 29.6151 163.154ZM48.9057 154.982V164H47.8077V162.272C47.5437 162.872 47.1417 163.334 46.6017 163.658C46.0737 163.97 45.4377 164.126 44.6937 164.126C43.8897 164.126 43.1817 163.94 42.5697 163.568C41.9697 163.184 41.5017 162.644 41.1657 161.948C40.8417 161.24 40.6797 160.418 40.6797 159.482C40.6797 158.546 40.8477 157.724 41.1837 157.016C41.5197 156.296 41.9877 155.744 42.5877 155.36C43.1997 154.964 43.9017 154.766 44.6937 154.766C45.4257 154.766 46.0557 154.922 46.5837 155.234C47.1237 155.546 47.5317 156.002 47.8077 156.602V154.982H48.9057ZM44.8557 163.154C45.7917 163.154 46.5177 162.83 47.0337 162.182C47.5497 161.534 47.8077 160.622 47.8077 159.446C47.8077 158.258 47.5497 157.34 47.0337 156.692C46.5177 156.044 45.7857 155.72 44.8377 155.72C43.8897 155.72 43.1517 156.056 42.6237 156.728C42.0957 157.388 41.8317 158.306 41.8317 159.482C41.8317 160.646 42.0957 161.552 42.6237 162.2C43.1517 162.836 43.8957 163.154 44.8557 163.154ZM64.1284 150.752V164H63.0304V162.272C62.7664 162.872 62.3644 163.334 61.8244 163.658C61.2964 163.97 60.6604 164.126 59.9164 164.126C59.1244 164.126 58.4224 163.934 57.8104 163.55C57.2104 163.154 56.7424 162.602 56.4064 161.894C56.0704 161.174 55.9024 160.346 55.9024 159.41C55.9024 158.474 56.0644 157.658 56.3884 156.962C56.7244 156.254 57.1924 155.714 57.7924 155.342C58.4044 154.958 59.1124 154.766 59.9164 154.766C60.6484 154.766 61.2784 154.922 61.8064 155.234C62.3464 155.546 62.7544 156.002 63.0304 156.602V150.752H64.1284ZM60.0604 163.154C61.0084 163.154 61.7404 162.83 62.2564 162.182C62.7724 161.534 63.0304 160.622 63.0304 159.446C63.0304 158.27 62.7724 157.358 62.2564 156.71C61.7404 156.05 61.0144 155.72 60.0784 155.72C59.1184 155.72 58.3744 156.044 57.8464 156.692C57.3184 157.34 57.0544 158.246 57.0544 159.41C57.0544 160.586 57.3184 161.504 57.8464 162.164C58.3744 162.824 59.1124 163.154 60.0604 163.154ZM70.6951 164.126C69.8671 164.126 69.1351 163.934 68.4991 163.55C67.8751 163.166 67.3891 162.62 67.0411 161.912C66.7051 161.204 66.5371 160.382 66.5371 159.446C66.5371 158.51 66.7051 157.688 67.0411 156.98C67.3891 156.272 67.8751 155.726 68.4991 155.342C69.1351 154.958 69.8671 154.766 70.6951 154.766C71.5111 154.766 72.2311 154.958 72.8551 155.342C73.4791 155.726 73.9591 156.272 74.2951 156.98C74.6431 157.688 74.8171 158.51 74.8171 159.446C74.8171 160.382 74.6431 161.204 74.2951 161.912C73.9591 162.62 73.4791 163.166 72.8551 163.55C72.2311 163.934 71.5111 164.126 70.6951 164.126ZM70.6771 163.154C71.6371 163.154 72.3751 162.836 72.8911 162.2C73.4191 161.552 73.6831 160.634 73.6831 159.446C73.6831 158.27 73.4191 157.358 72.8911 156.71C72.3631 156.05 71.6311 155.72 70.6951 155.72C69.7471 155.72 69.0091 156.05 68.4811 156.71C67.9531 157.358 67.6891 158.27 67.6891 159.446C67.6891 160.646 67.9471 161.564 68.4631 162.2C68.9791 162.836 69.7171 163.154 70.6771 163.154ZM80.8746 164.126C80.0226 164.126 79.2786 163.934 78.6426 163.55C78.0066 163.166 77.5146 162.626 77.1666 161.93C76.8186 161.222 76.6446 160.406 76.6446 159.482C76.6446 158.546 76.8186 157.724 77.1666 157.016C77.5146 156.296 78.0126 155.744 78.6606 155.36C79.3086 154.964 80.0586 154.766 80.9106 154.766C81.5226 154.766 82.1046 154.874 82.6566 155.09C83.2206 155.294 83.6826 155.582 84.0426 155.954L83.6106 156.818C83.1426 156.434 82.6926 156.158 82.2606 155.99C81.8406 155.81 81.4026 155.72 80.9466 155.72C79.9746 155.72 79.2066 156.056 78.6426 156.728C78.0786 157.388 77.7966 158.306 77.7966 159.482C77.7966 160.634 78.0726 161.534 78.6246 162.182C79.1886 162.83 79.9626 163.154 80.9466 163.154C81.4026 163.154 81.8406 163.07 82.2606 162.902C82.6926 162.722 83.1426 162.446 83.6106 162.074L84.0426 162.92C83.6586 163.292 83.1786 163.586 82.6026 163.802C82.0386 164.018 81.4626 164.126 80.8746 164.126ZM87.5748 155.864V161.228C87.5748 161.948 87.7128 162.446 87.9888 162.722C88.2648 162.998 88.6728 163.136 89.2128 163.136C89.5488 163.136 89.8728 163.082 90.1848 162.974V163.964C89.8008 164.06 89.4108 164.108 89.0148 164.108C88.2228 164.108 87.5988 163.886 87.1428 163.442C86.6988 162.998 86.4768 162.332 86.4768 161.444V155.864H84.6948V154.982H86.4768V152.588L87.5748 152.174V154.982H90.2388V155.864H87.5748ZM95.6912 164.126C94.8632 164.126 94.1312 163.934 93.4952 163.55C92.8712 163.166 92.3852 162.62 92.0372 161.912C91.7012 161.204 91.5332 160.382 91.5332 159.446C91.5332 158.51 91.7012 157.688 92.0372 156.98C92.3852 156.272 92.8712 155.726 93.4952 155.342C94.1312 154.958 94.8632 154.766 95.6912 154.766C96.5072 154.766 97.2272 154.958 97.8512 155.342C98.4752 155.726 98.9552 156.272 99.2912 156.98C99.6392 157.688 99.8132 158.51 99.8132 159.446C99.8132 160.382 99.6392 161.204 99.2912 161.912C98.9552 162.62 98.4752 163.166 97.8512 163.55C97.2272 163.934 96.5072 164.126 95.6912 164.126ZM95.6732 163.154C96.6332 163.154 97.3712 162.836 97.8872 162.2C98.4152 161.552 98.6792 160.634 98.6792 159.446C98.6792 158.27 98.4152 157.358 97.8872 156.71C97.3592 156.05 96.6272 155.72 95.6912 155.72C94.7432 155.72 94.0052 156.05 93.4772 156.71C92.9492 157.358 92.6852 158.27 92.6852 159.446C92.6852 160.646 92.9432 161.564 93.4592 162.2C93.9752 162.836 94.7132 163.154 95.6732 163.154ZM106.105 154.766C106.405 154.766 106.669 154.79 106.897 154.838L106.843 155.828C106.615 155.78 106.339 155.756 106.015 155.756C105.103 155.756 104.419 156.05 103.963 156.638C103.519 157.214 103.297 157.904 103.297 158.708V164H102.217V157.484C102.217 156.548 102.169 155.714 102.073 154.982H103.117L103.261 156.656C103.489 156.044 103.855 155.576 104.359 155.252C104.875 154.928 105.457 154.766 106.105 154.766ZM10.008 198.58H3.096L1.62 202H0.468L6.048 189.184H7.056L12.618 202H11.466L10.008 198.58ZM9.576 197.608L6.552 190.534L3.51 197.608H9.576ZM18.7841 192.766C19.5761 192.766 20.2721 192.964 20.8721 193.36C21.4841 193.744 21.9581 194.296 22.2941 195.016C22.6301 195.724 22.7981 196.546 22.7981 197.482C22.7981 198.418 22.6301 199.234 22.2941 199.93C21.9701 200.626 21.5021 201.166 20.8901 201.55C20.2781 201.934 19.5761 202.126 18.7841 202.126C18.0281 202.126 17.3801 201.964 16.8401 201.64C16.3121 201.304 15.9161 200.824 15.6521 200.2V205.888H14.5721V195.484C14.5721 194.548 14.5241 193.714 14.4281 192.982H15.4721L15.6161 194.746C15.8801 194.11 16.2821 193.624 16.8221 193.288C17.3741 192.94 18.0281 192.766 18.7841 192.766ZM18.6401 201.154C19.5881 201.154 20.3261 200.836 20.8541 200.2C21.3821 199.552 21.6461 198.646 21.6461 197.482C21.6461 196.306 21.3821 195.388 20.8541 194.728C20.3261 194.056 19.5941 193.72 18.6581 193.72C17.6981 193.72 16.9601 194.044 16.4441 194.692C15.9281 195.34 15.6701 196.258 15.6701 197.446C15.6701 198.622 15.9281 199.534 16.4441 200.182C16.9601 200.83 17.6921 201.154 18.6401 201.154ZM29.4189 192.766C30.2109 192.766 30.9069 192.964 31.5069 193.36C32.1189 193.744 32.5929 194.296 32.9289 195.016C33.2649 195.724 33.4329 196.546 33.4329 197.482C33.4329 198.418 33.2649 199.234 32.9289 199.93C32.6049 200.626 32.1369 201.166 31.5249 201.55C30.9129 201.934 30.2109 202.126 29.4189 202.126C28.6629 202.126 28.0149 201.964 27.4749 201.64C26.9469 201.304 26.5509 200.824 26.2869 200.2V205.888H25.2069V195.484C25.2069 194.548 25.1589 193.714 25.0629 192.982H26.1069L26.2509 194.746C26.5149 194.11 26.9169 193.624 27.4569 193.288C28.0089 192.94 28.6629 192.766 29.4189 192.766ZM29.2749 201.154C30.2229 201.154 30.9609 200.836 31.4889 200.2C32.0169 199.552 32.2809 198.646 32.2809 197.482C32.2809 196.306 32.0169 195.388 31.4889 194.728C30.9609 194.056 30.2289 193.72 29.2929 193.72C28.3329 193.72 27.5949 194.044 27.0789 194.692C26.5629 195.34 26.3049 196.258 26.3049 197.446C26.3049 198.622 26.5629 199.534 27.0789 200.182C27.5949 200.83 28.3269 201.154 29.2749 201.154ZM38.7757 202.126C37.3117 202.126 36.1537 201.724 35.3017 200.92L35.6977 200.074C36.1777 200.47 36.6577 200.752 37.1377 200.92C37.6297 201.088 38.1937 201.172 38.8297 201.172C39.5737 201.172 40.1377 201.046 40.5217 200.794C40.9177 200.53 41.1157 200.152 41.1157 199.66C41.1157 199.252 40.9837 198.934 40.7197 198.706C40.4677 198.466 40.0477 198.274 39.4597 198.13L37.9297 197.788C37.2097 197.62 36.6397 197.32 36.2197 196.888C35.8117 196.456 35.6077 195.952 35.6077 195.376C35.6077 194.584 35.9077 193.954 36.5077 193.486C37.1197 193.006 37.9297 192.766 38.9377 192.766C39.5737 192.766 40.1617 192.868 40.7017 193.072C41.2537 193.276 41.7097 193.57 42.0697 193.954L41.6557 194.8C40.8277 194.08 39.9217 193.72 38.9377 193.72C38.2417 193.72 37.7017 193.858 37.3177 194.134C36.9337 194.41 36.7417 194.794 36.7417 195.286C36.7417 195.694 36.8617 196.024 37.1017 196.276C37.3537 196.528 37.7377 196.714 38.2537 196.834L39.8017 197.212C41.4217 197.572 42.2317 198.37 42.2317 199.606C42.2317 200.362 41.9197 200.974 41.2957 201.442C40.6717 201.898 39.8317 202.126 38.7757 202.126Z" fill="white"/>
<path d="M8 38.18C6.6 38.18 5.37333 37.88 4.32 37.28C3.28 36.68 2.48 35.8333 1.92 34.74C1.36 33.6333 1.08 32.34 1.08 30.86C1.08 29.3933 1.36 28.1133 1.92 27.02C2.48 25.9133 3.28 25.0667 4.32 24.48C5.37333 23.88 6.6 23.58 8 23.58C8.96 23.58 9.86 23.7333 10.7 24.04C11.5533 24.3333 12.26 24.7467 12.82 25.28L11.98 27.16C11.34 26.64 10.7 26.2667 10.06 26.04C9.43333 25.8 8.76 25.68 8.04 25.68C6.66667 25.68 5.6 26.1267 4.84 27.02C4.09333 27.9133 3.72 29.1933 3.72 30.86C3.72 32.54 4.09333 33.8333 4.84 34.74C5.58667 35.6333 6.65333 36.08 8.04 36.08C8.76 36.08 9.43333 35.9667 10.06 35.74C10.7 35.5 11.34 35.12 11.98 34.6L12.82 36.48C12.26 37.0133 11.5533 37.4333 10.7 37.74C9.86 38.0333 8.96 38.18 8 38.18ZM19.4361 38.16C18.4094 38.16 17.5028 37.9467 16.7161 37.52C15.9428 37.0933 15.3428 36.4867 14.9161 35.7C14.5028 34.9 14.2961 33.9667 14.2961 32.9C14.2961 31.8333 14.5028 30.9067 14.9161 30.12C15.3428 29.32 15.9428 28.7067 16.7161 28.28C17.5028 27.8533 18.4094 27.64 19.4361 27.64C20.4494 27.64 21.3428 27.8533 22.1161 28.28C22.8894 28.7067 23.4828 29.32 23.8961 30.12C24.3228 30.9067 24.5361 31.8333 24.5361 32.9C24.5361 33.9667 24.3228 34.9 23.8961 35.7C23.4828 36.4867 22.8894 37.0933 22.1161 37.52C21.3428 37.9467 20.4494 38.16 19.4361 38.16ZM19.4161 36.2C20.2694 36.2 20.9161 35.9267 21.3561 35.38C21.8094 34.82 22.0361 33.9933 22.0361 32.9C22.0361 31.82 21.8094 31 21.3561 30.44C20.9028 29.8667 20.2628 29.58 19.4361 29.58C18.5961 29.58 17.9494 29.8667 17.4961 30.44C17.0428 31 16.8161 31.82 16.8161 32.9C16.8161 33.9933 17.0361 34.82 17.4761 35.38C17.9294 35.9267 18.5761 36.2 19.4161 36.2ZM38.612 27.64C39.7587 27.64 40.612 27.9867 41.172 28.68C41.732 29.36 42.012 30.4 42.012 31.8V38H39.512V31.88C39.512 31.08 39.3787 30.5067 39.112 30.16C38.8587 29.8 38.432 29.62 37.832 29.62C37.1387 29.62 36.592 29.8667 36.192 30.36C35.8054 30.84 35.612 31.5067 35.612 32.36V38H33.112V31.88C33.112 31.0933 32.972 30.52 32.692 30.16C32.4254 29.8 31.9987 29.62 31.412 29.62C30.7187 29.62 30.172 29.8667 29.772 30.36C29.372 30.84 29.172 31.5067 29.172 32.36V38H26.692V30.76C26.692 29.6933 26.6387 28.74 26.532 27.9H28.872L29.052 29.5C29.3454 28.9 29.7654 28.44 30.312 28.12C30.872 27.8 31.512 27.64 32.232 27.64C33.7787 27.64 34.7854 28.28 35.252 29.56C35.572 28.96 36.0254 28.4933 36.612 28.16C37.212 27.8133 37.8787 27.64 38.612 27.64ZM50.4403 27.64C51.307 27.64 52.0736 27.8667 52.7403 28.32C53.4203 28.76 53.947 29.3867 54.3203 30.2C54.707 31 54.9003 31.92 54.9003 32.96C54.9003 34 54.7136 34.9133 54.3403 35.7C53.967 36.4867 53.4403 37.0933 52.7603 37.52C52.0936 37.9467 51.3203 38.16 50.4403 38.16C49.707 38.16 49.0536 38.0067 48.4803 37.7C47.907 37.38 47.467 36.94 47.1603 36.38V42.32H44.6803V30.76C44.6803 29.6933 44.627 28.74 44.5203 27.9H46.8603L47.0603 29.64C47.327 29.0133 47.7603 28.5267 48.3603 28.18C48.9603 27.82 49.6536 27.64 50.4403 27.64ZM49.7603 36.2C50.6003 36.2 51.247 35.92 51.7003 35.36C52.1536 34.8 52.3803 34 52.3803 32.96C52.3803 31.9067 52.1536 31.0867 51.7003 30.5C51.247 29.9 50.607 29.6 49.7803 29.6C48.927 29.6 48.2736 29.8867 47.8203 30.46C47.367 31.0333 47.1403 31.8533 47.1403 32.92C47.1403 33.9733 47.367 34.7867 47.8203 35.36C48.2736 35.92 48.9203 36.2 49.7603 36.2ZM66.7427 27.9V38H64.2827V36.38C63.976 36.94 63.536 37.38 62.9627 37.7C62.3893 38.0067 61.736 38.16 61.0027 38.16C60.1227 38.16 59.3427 37.9467 58.6627 37.52C57.9827 37.0933 57.456 36.4867 57.0827 35.7C56.7093 34.9133 56.5227 34 56.5227 32.96C56.5227 31.92 56.7093 31 57.0827 30.2C57.4693 29.3867 58.0027 28.76 58.6827 28.32C59.3627 27.8667 60.136 27.64 61.0027 27.64C61.736 27.64 62.3893 27.8 62.9627 28.12C63.536 28.4267 63.976 28.86 64.2827 29.42V27.9H66.7427ZM61.6827 36.2C62.5093 36.2 63.1493 35.9133 63.6027 35.34C64.056 34.7667 64.2827 33.96 64.2827 32.92C64.2827 31.8533 64.056 31.0333 63.6027 30.46C63.1493 29.8867 62.5027 29.6 61.6627 29.6C60.836 29.6 60.1893 29.9 59.7227 30.5C59.2693 31.0867 59.0427 31.9067 59.0427 32.96C59.0427 34 59.2693 34.8 59.7227 35.36C60.1893 35.92 60.8427 36.2 61.6827 36.2ZM75.2455 27.64C77.6588 27.64 78.8655 29.0267 78.8655 31.8V38H76.3655V31.92C76.3655 31.12 76.2121 30.54 75.9055 30.18C75.5988 29.8067 75.1255 29.62 74.4855 29.62C73.7255 29.62 73.1121 29.8667 72.6455 30.36C72.1788 30.84 71.9455 31.48 71.9455 32.28V38H69.4655V30.76C69.4655 29.6933 69.4121 28.74 69.3055 27.9H71.6455L71.8255 29.56C72.1721 28.9467 72.6388 28.4733 73.2255 28.14C73.8255 27.8067 74.4988 27.64 75.2455 27.64ZM91.0763 27.9L86.3763 38.68C85.8429 39.9333 85.1629 40.8467 84.3363 41.42C83.5096 41.9933 82.4896 42.3733 81.2763 42.56L80.7163 40.64C81.6629 40.4267 82.3696 40.1533 82.8363 39.82C83.3163 39.5 83.7029 39.02 83.9963 38.38L84.3163 37.64L80.1162 27.9H82.7363L85.6363 35.16L88.5963 27.9H91.0763Z" fill="white"/>
</svg>
