<svg width="372" height="214" viewBox="0 0 372 214" fill="none" xmlns="http://www.w3.org/2000/svg">
<path d="M12.06 75.184V88H10.944V81.988H2.772V88H1.656V75.184H2.772V80.998H10.944V75.184H12.06ZM15.7809 83.356V83.41C15.7809 84.622 16.0569 85.552 16.6089 86.2C17.1729 86.836 17.9889 87.154 19.0569 87.154C20.1369 87.154 21.1269 86.782 22.0269 86.038L22.4589 86.902C22.0629 87.274 21.5589 87.574 20.9469 87.802C20.3349 88.018 19.7049 88.126 19.0569 88.126C17.6889 88.126 16.6089 87.712 15.8169 86.884C15.0249 86.056 14.6289 84.916 14.6289 83.464C14.6289 82.54 14.8029 81.724 15.1509 81.016C15.5109 80.296 16.0089 79.744 16.6449 79.36C17.2809 78.964 18.0129 78.766 18.8409 78.766C20.0289 78.766 20.9529 79.15 21.6129 79.918C22.2849 80.686 22.6209 81.754 22.6209 83.122V83.356H15.7809ZM18.8409 79.666C18.0129 79.666 17.3409 79.918 16.8249 80.422C16.3089 80.914 15.9849 81.61 15.8529 82.51H21.5769C21.5049 81.586 21.2349 80.884 20.7669 80.404C20.2989 79.912 19.6569 79.666 18.8409 79.666ZM24.9784 74.752H26.0584V88H24.9784V74.752ZM33.2861 78.766C34.0781 78.766 34.7741 78.964 35.3741 79.36C35.9861 79.744 36.4601 80.296 36.7961 81.016C37.1321 81.724 37.3001 82.546 37.3001 83.482C37.3001 84.418 37.1321 85.234 36.7961 85.93C36.4721 86.626 36.0041 87.166 35.3921 87.55C34.7801 87.934 34.0781 88.126 33.2861 88.126C32.5301 88.126 31.8821 87.964 31.3421 87.64C30.8141 87.304 30.4181 86.824 30.1541 86.2V91.888H29.0741V81.484C29.0741 80.548 29.0261 79.714 28.9301 78.982H29.9741L30.1181 80.746C30.3821 80.11 30.7841 79.624 31.3241 79.288C31.8761 78.94 32.5301 78.766 33.2861 78.766ZM33.1421 87.154C34.0901 87.154 34.8281 86.836 35.3561 86.2C35.8841 85.552 36.1481 84.646 36.1481 83.482C36.1481 82.306 35.8841 81.388 35.3561 80.728C34.8281 80.056 34.0961 79.72 33.1601 79.72C32.2001 79.72 31.4621 80.044 30.9461 80.692C30.4301 81.34 30.1721 82.258 30.1721 83.446C30.1721 84.622 30.4301 85.534 30.9461 86.182C31.4621 86.83 32.1941 87.154 33.1421 87.154ZM47.9507 88.126C47.0987 88.126 46.3547 87.934 45.7187 87.55C45.0827 87.166 44.5907 86.626 44.2427 85.93C43.8947 85.222 43.7207 84.406 43.7207 83.482C43.7207 82.546 43.8947 81.724 44.2427 81.016C44.5907 80.296 45.0887 79.744 45.7367 79.36C46.3847 78.964 47.1347 78.766 47.9867 78.766C48.5987 78.766 49.1807 78.874 49.7327 79.09C50.2967 79.294 50.7587 79.582 51.1187 79.954L50.6867 80.818C50.2187 80.434 49.7687 80.158 49.3367 79.99C48.9167 79.81 48.4787 79.72 48.0227 79.72C47.0507 79.72 46.2827 80.056 45.7187 80.728C45.1547 81.388 44.8727 82.306 44.8727 83.482C44.8727 84.634 45.1487 85.534 45.7007 86.182C46.2647 86.83 47.0387 87.154 48.0227 87.154C48.4787 87.154 48.9167 87.07 49.3367 86.902C49.7687 86.722 50.2187 86.446 50.6867 86.074L51.1187 86.92C50.7347 87.292 50.2547 87.586 49.6787 87.802C49.1147 88.018 48.5387 88.126 47.9507 88.126ZM53.697 83.356V83.41C53.697 84.622 53.973 85.552 54.525 86.2C55.089 86.836 55.905 87.154 56.973 87.154C58.053 87.154 59.043 86.782 59.943 86.038L60.375 86.902C59.979 87.274 59.475 87.574 58.863 87.802C58.251 88.018 57.621 88.126 56.973 88.126C55.605 88.126 54.525 87.712 53.733 86.884C52.941 86.056 52.545 84.916 52.545 83.464C52.545 82.54 52.719 81.724 53.067 81.016C53.427 80.296 53.925 79.744 54.561 79.36C55.197 78.964 55.929 78.766 56.757 78.766C57.945 78.766 58.869 79.15 59.529 79.918C60.201 80.686 60.537 81.754 60.537 83.122V83.356H53.697ZM56.757 79.666C55.929 79.666 55.257 79.918 54.741 80.422C54.225 80.914 53.901 81.61 53.769 82.51H59.493C59.421 81.586 59.151 80.884 58.683 80.404C58.215 79.912 57.573 79.666 56.757 79.666ZM67.0884 78.766C69.2604 78.766 70.3464 79.93 70.3464 82.258V88H69.2484V82.33C69.2484 81.43 69.0624 80.77 68.6904 80.35C68.3304 79.93 67.7604 79.72 66.9804 79.72C66.0804 79.72 65.3544 79.996 64.8024 80.548C64.2504 81.1 63.9744 81.844 63.9744 82.78V88H62.8944V81.484C62.8944 80.548 62.8464 79.714 62.7504 78.982H63.7944L63.9384 80.638C64.2144 80.026 64.6284 79.564 65.1804 79.252C65.7324 78.928 66.3684 78.766 67.0884 78.766ZM74.8306 79.864V85.228C74.8306 85.948 74.9686 86.446 75.2446 86.722C75.5206 86.998 75.9286 87.136 76.4686 87.136C76.8046 87.136 77.1286 87.082 77.4406 86.974V87.964C77.0566 88.06 76.6666 88.108 76.2706 88.108C75.4786 88.108 74.8546 87.886 74.3986 87.442C73.9546 86.998 73.7326 86.332 73.7326 85.444V79.864H71.9506V78.982H73.7326V76.588L74.8306 76.174V78.982H77.4946V79.864H74.8306ZM79.9411 83.356V83.41C79.9411 84.622 80.2171 85.552 80.7691 86.2C81.3331 86.836 82.1491 87.154 83.2171 87.154C84.2971 87.154 85.2871 86.782 86.1871 86.038L86.6191 86.902C86.2231 87.274 85.7191 87.574 85.1071 87.802C84.4951 88.018 83.8651 88.126 83.2171 88.126C81.8491 88.126 80.7691 87.712 79.9771 86.884C79.1851 86.056 78.7891 84.916 78.7891 83.464C78.7891 82.54 78.9631 81.724 79.3111 81.016C79.6711 80.296 80.1691 79.744 80.8051 79.36C81.4411 78.964 82.1731 78.766 83.0011 78.766C84.1891 78.766 85.1131 79.15 85.7731 79.918C86.4451 80.686 86.7811 81.754 86.7811 83.122V83.356H79.9411ZM83.0011 79.666C82.1731 79.666 81.5011 79.918 80.9851 80.422C80.4691 80.914 80.1451 81.61 80.0131 82.51H85.7371C85.6651 81.586 85.3951 80.884 84.9271 80.404C84.4591 79.912 83.8171 79.666 83.0011 79.666ZM93.0265 78.766C93.3265 78.766 93.5905 78.79 93.8185 78.838L93.7645 79.828C93.5365 79.78 93.2605 79.756 92.9365 79.756C92.0245 79.756 91.3405 80.05 90.8845 80.638C90.4405 81.214 90.2185 81.904 90.2185 82.708V88H89.1385V81.484C89.1385 80.548 89.0905 79.714 88.9945 78.982H90.0385L90.1825 80.656C90.4105 80.044 90.7765 79.576 91.2805 79.252C91.7965 78.928 92.3785 78.766 93.0265 78.766ZM6.984 126.144C5.796 126.144 4.764 125.886 3.888 125.37C3.012 124.842 2.34 124.086 1.872 123.102C1.404 122.106 1.17 120.93 1.17 119.574C1.17 118.23 1.404 117.066 1.872 116.082C2.34 115.098 3.012 114.348 3.888 113.832C4.764 113.304 5.796 113.04 6.984 113.04C7.872 113.04 8.682 113.184 9.414 113.472C10.158 113.748 10.8 114.162 11.34 114.714L10.872 115.596C10.26 115.044 9.648 114.648 9.036 114.408C8.424 114.156 7.74 114.03 6.984 114.03C5.508 114.03 4.362 114.516 3.546 115.488C2.73 116.448 2.322 117.81 2.322 119.574C2.322 121.35 2.724 122.724 3.528 123.696C4.344 124.668 5.496 125.154 6.984 125.154C7.74 125.154 8.424 125.034 9.036 124.794C9.648 124.542 10.26 124.14 10.872 123.588L11.34 124.47C10.8 125.022 10.158 125.442 9.414 125.73C8.682 126.006 7.872 126.144 6.984 126.144ZM17.2049 126.126C16.3769 126.126 15.6449 125.934 15.0089 125.55C14.3849 125.166 13.8989 124.62 13.5509 123.912C13.2149 123.204 13.0469 122.382 13.0469 121.446C13.0469 120.51 13.2149 119.688 13.5509 118.98C13.8989 118.272 14.3849 117.726 15.0089 117.342C15.6449 116.958 16.3769 116.766 17.2049 116.766C18.0209 116.766 18.7409 116.958 19.3649 117.342C19.9889 117.726 20.4689 118.272 20.8049 118.98C21.1529 119.688 21.3269 120.51 21.3269 121.446C21.3269 122.382 21.1529 123.204 20.8049 123.912C20.4689 124.62 19.9889 125.166 19.3649 125.55C18.7409 125.934 18.0209 126.126 17.2049 126.126ZM17.1869 125.154C18.1469 125.154 18.8849 124.836 19.4009 124.2C19.9289 123.552 20.1929 122.634 20.1929 121.446C20.1929 120.27 19.9289 119.358 19.4009 118.71C18.8729 118.05 18.1409 117.72 17.2049 117.72C16.2569 117.72 15.5189 118.05 14.9909 118.71C14.4629 119.358 14.1989 120.27 14.1989 121.446C14.1989 122.646 14.4569 123.564 14.9729 124.2C15.4889 124.836 16.2269 125.154 17.1869 125.154ZM27.9243 116.766C30.0963 116.766 31.1823 117.93 31.1823 120.258V126H30.0843V120.33C30.0843 119.43 29.8983 118.77 29.5263 118.35C29.1663 117.93 28.5963 117.72 27.8163 117.72C26.9163 117.72 26.1903 117.996 25.6383 118.548C25.0863 119.1 24.8103 119.844 24.8103 120.78V126H23.7303V119.484C23.7303 118.548 23.6823 117.714 23.5863 116.982H24.6303L24.7743 118.638C25.0503 118.026 25.4643 117.564 26.0163 117.252C26.5683 116.928 27.2043 116.766 27.9243 116.766ZM35.6666 117.864V123.228C35.6666 123.948 35.8046 124.446 36.0806 124.722C36.3566 124.998 36.7646 125.136 37.3046 125.136C37.6406 125.136 37.9646 125.082 38.2766 124.974V125.964C37.8926 126.06 37.5026 126.108 37.1066 126.108C36.3146 126.108 35.6906 125.886 35.2346 125.442C34.7906 124.998 34.5686 124.332 34.5686 123.444V117.864H32.7866V116.982H34.5686V114.588L35.6666 114.174V116.982H38.3306V117.864H35.6666ZM47.851 116.982V126H46.753V124.272C46.489 124.872 46.087 125.334 45.547 125.658C45.019 125.97 44.383 126.126 43.639 126.126C42.835 126.126 42.127 125.94 41.515 125.568C40.915 125.184 40.447 124.644 40.111 123.948C39.787 123.24 39.625 122.418 39.625 121.482C39.625 120.546 39.793 119.724 40.129 119.016C40.465 118.296 40.933 117.744 41.533 117.36C42.145 116.964 42.847 116.766 43.639 116.766C44.371 116.766 45.001 116.922 45.529 117.234C46.069 117.546 46.477 118.002 46.753 118.602V116.982H47.851ZM43.801 125.154C44.737 125.154 45.463 124.83 45.979 124.182C46.495 123.534 46.753 122.622 46.753 121.446C46.753 120.258 46.495 119.34 45.979 118.692C45.463 118.044 44.731 117.72 43.783 117.72C42.835 117.72 42.097 118.056 41.569 118.728C41.041 119.388 40.777 120.306 40.777 121.482C40.777 122.646 41.041 123.552 41.569 124.2C42.097 124.836 42.841 125.154 43.801 125.154ZM54.4898 126.126C53.6378 126.126 52.8938 125.934 52.2578 125.55C51.6218 125.166 51.1298 124.626 50.7818 123.93C50.4338 123.222 50.2598 122.406 50.2598 121.482C50.2598 120.546 50.4338 119.724 50.7818 119.016C51.1298 118.296 51.6278 117.744 52.2758 117.36C52.9238 116.964 53.6738 116.766 54.5258 116.766C55.1378 116.766 55.7198 116.874 56.2718 117.09C56.8358 117.294 57.2978 117.582 57.6578 117.954L57.2258 118.818C56.7578 118.434 56.3078 118.158 55.8758 117.99C55.4558 117.81 55.0178 117.72 54.5618 117.72C53.5898 117.72 52.8218 118.056 52.2578 118.728C51.6938 119.388 51.4118 120.306 51.4118 121.482C51.4118 122.634 51.6878 123.534 52.2398 124.182C52.8038 124.83 53.5778 125.154 54.5618 125.154C55.0178 125.154 55.4558 125.07 55.8758 124.902C56.3078 124.722 56.7578 124.446 57.2258 124.074L57.6578 124.92C57.2738 125.292 56.7938 125.586 56.2178 125.802C55.6538 126.018 55.0778 126.126 54.4898 126.126ZM61.19 117.864V123.228C61.19 123.948 61.328 124.446 61.604 124.722C61.88 124.998 62.288 125.136 62.828 125.136C63.164 125.136 63.488 125.082 63.8 124.974V125.964C63.416 126.06 63.026 126.108 62.63 126.108C61.838 126.108 61.214 125.886 60.758 125.442C60.314 124.998 60.092 124.332 60.092 123.444V117.864H58.31V116.982H60.092V114.588L61.19 114.174V116.982H63.854V117.864H61.19ZM73.2464 126.126C71.7824 126.126 70.6244 125.724 69.7724 124.92L70.1684 124.074C70.6484 124.47 71.1284 124.752 71.6084 124.92C72.1004 125.088 72.6644 125.172 73.3004 125.172C74.0444 125.172 74.6084 125.046 74.9924 124.794C75.3884 124.53 75.5864 124.152 75.5864 123.66C75.5864 123.252 75.4544 122.934 75.1904 122.706C74.9384 122.466 74.5184 122.274 73.9304 122.13L72.4004 121.788C71.6804 121.62 71.1104 121.32 70.6904 120.888C70.2824 120.456 70.0784 119.952 70.0784 119.376C70.0784 118.584 70.3784 117.954 70.9784 117.486C71.5904 117.006 72.4004 116.766 73.4084 116.766C74.0444 116.766 74.6324 116.868 75.1724 117.072C75.7244 117.276 76.1804 117.57 76.5404 117.954L76.1264 118.8C75.2984 118.08 74.3924 117.72 73.4084 117.72C72.7124 117.72 72.1724 117.858 71.7884 118.134C71.4044 118.41 71.2124 118.794 71.2124 119.286C71.2124 119.694 71.3324 120.024 71.5724 120.276C71.8244 120.528 72.2084 120.714 72.7244 120.834L74.2724 121.212C75.8924 121.572 76.7024 122.37 76.7024 123.606C76.7024 124.362 76.3904 124.974 75.7664 125.442C75.1424 125.898 74.3024 126.126 73.2464 126.126ZM86.4609 116.982V126H85.3989V124.362C85.1109 124.938 84.7029 125.376 84.1749 125.676C83.6469 125.976 83.0409 126.126 82.3569 126.126C81.3009 126.126 80.5029 125.832 79.9629 125.244C79.4229 124.656 79.1529 123.786 79.1529 122.634V116.982H80.2329V122.562C80.2329 123.45 80.4129 124.104 80.7729 124.524C81.1329 124.944 81.6909 125.154 82.4469 125.154C83.3349 125.154 84.0429 124.878 84.5709 124.326C85.0989 123.762 85.3629 123.018 85.3629 122.094V116.982H86.4609ZM93.6669 116.766C94.4589 116.766 95.1549 116.964 95.7549 117.36C96.3669 117.744 96.8409 118.296 97.1769 119.016C97.5129 119.724 97.6809 120.546 97.6809 121.482C97.6809 122.418 97.5129 123.234 97.1769 123.93C96.8529 124.626 96.3849 125.166 95.7729 125.55C95.1609 125.934 94.4589 126.126 93.6669 126.126C92.9109 126.126 92.2629 125.964 91.7229 125.64C91.1949 125.304 90.7989 124.824 90.5349 124.2V129.888H89.4549V119.484C89.4549 118.548 89.4069 117.714 89.3109 116.982H90.3549L90.4989 118.746C90.7629 118.11 91.1649 117.624 91.7049 117.288C92.2569 116.94 92.9109 116.766 93.6669 116.766ZM93.5229 125.154C94.4709 125.154 95.2089 124.836 95.7369 124.2C96.2649 123.552 96.5289 122.646 96.5289 121.482C96.5289 120.306 96.2649 119.388 95.7369 118.728C95.2089 118.056 94.4769 117.72 93.5409 117.72C92.5809 117.72 91.8429 118.044 91.3269 118.692C90.8109 119.34 90.5529 120.258 90.5529 121.446C90.5529 122.622 90.8109 123.534 91.3269 124.182C91.8429 124.83 92.5749 125.154 93.5229 125.154ZM104.302 116.766C105.094 116.766 105.79 116.964 106.39 117.36C107.002 117.744 107.476 118.296 107.812 119.016C108.148 119.724 108.316 120.546 108.316 121.482C108.316 122.418 108.148 123.234 107.812 123.93C107.488 124.626 107.02 125.166 106.408 125.55C105.796 125.934 105.094 126.126 104.302 126.126C103.546 126.126 102.898 125.964 102.358 125.64C101.83 125.304 101.434 124.824 101.17 124.2V129.888H100.09V119.484C100.09 118.548 100.042 117.714 99.9457 116.982H100.99L101.134 118.746C101.398 118.11 101.8 117.624 102.34 117.288C102.892 116.94 103.546 116.766 104.302 116.766ZM104.158 125.154C105.106 125.154 105.844 124.836 106.372 124.2C106.9 123.552 107.164 122.646 107.164 121.482C107.164 120.306 106.9 119.388 106.372 118.728C105.844 118.056 105.112 117.72 104.176 117.72C103.216 117.72 102.478 118.044 101.962 118.692C101.446 119.34 101.188 120.258 101.188 121.446C101.188 122.622 101.446 123.534 101.962 124.182C102.478 124.83 103.21 125.154 104.158 125.154ZM114.306 126.126C113.478 126.126 112.746 125.934 112.11 125.55C111.486 125.166 111 124.62 110.652 123.912C110.316 123.204 110.148 122.382 110.148 121.446C110.148 120.51 110.316 119.688 110.652 118.98C111 118.272 111.486 117.726 112.11 117.342C112.746 116.958 113.478 116.766 114.306 116.766C115.122 116.766 115.842 116.958 116.466 117.342C117.09 117.726 117.57 118.272 117.906 118.98C118.254 119.688 118.428 120.51 118.428 121.446C118.428 122.382 118.254 123.204 117.906 123.912C117.57 124.62 117.09 125.166 116.466 125.55C115.842 125.934 115.122 126.126 114.306 126.126ZM114.288 125.154C115.248 125.154 115.986 124.836 116.502 124.2C117.03 123.552 117.294 122.634 117.294 121.446C117.294 120.27 117.03 119.358 116.502 118.71C115.974 118.05 115.242 117.72 114.306 117.72C113.358 117.72 112.62 118.05 112.092 118.71C111.564 119.358 111.3 120.27 111.3 121.446C111.3 122.646 111.558 123.564 112.074 124.2C112.59 124.836 113.328 125.154 114.288 125.154ZM124.72 116.766C125.02 116.766 125.284 116.79 125.512 116.838L125.458 117.828C125.23 117.78 124.954 117.756 124.63 117.756C123.718 117.756 123.034 118.05 122.578 118.638C122.134 119.214 121.912 119.904 121.912 120.708V126H120.832V119.484C120.832 118.548 120.784 117.714 120.688 116.982H121.732L121.876 118.656C122.104 118.044 122.47 117.576 122.974 117.252C123.49 116.928 124.072 116.766 124.72 116.766ZM129.288 117.864V123.228C129.288 123.948 129.426 124.446 129.702 124.722C129.978 124.998 130.386 125.136 130.926 125.136C131.262 125.136 131.586 125.082 131.898 124.974V125.964C131.514 126.06 131.124 126.108 130.728 126.108C129.936 126.108 129.312 125.886 128.856 125.442C128.412 124.998 128.19 124.332 128.19 123.444V117.864H126.408V116.982H128.19V114.588L129.288 114.174V116.982H131.952V117.864H129.288ZM1.656 151.184H2.772V164H1.656V151.184ZM10.1177 154.766C12.2897 154.766 13.3757 155.93 13.3757 158.258V164H12.2777V158.33C12.2777 157.43 12.0917 156.77 11.7197 156.35C11.3597 155.93 10.7897 155.72 10.0097 155.72C9.10969 155.72 8.38369 155.996 7.83169 156.548C7.27969 157.1 7.00369 157.844 7.00369 158.78V164H5.92369V157.484C5.92369 156.548 5.87569 155.714 5.77969 154.982H6.82369L6.96769 156.638C7.24369 156.026 7.65769 155.564 8.20969 155.252C8.76169 154.928 9.39769 154.766 10.1177 154.766ZM19.2639 164.126C17.7999 164.126 16.6419 163.724 15.7899 162.92L16.1859 162.074C16.6659 162.47 17.1459 162.752 17.6259 162.92C18.1179 163.088 18.6819 163.172 19.3179 163.172C20.0619 163.172 20.6259 163.046 21.0099 162.794C21.4059 162.53 21.6039 162.152 21.6039 161.66C21.6039 161.252 21.4719 160.934 21.2079 160.706C20.9559 160.466 20.5359 160.274 19.9479 160.13L18.4179 159.788C17.6979 159.62 17.1279 159.32 16.7079 158.888C16.2999 158.456 16.0959 157.952 16.0959 157.376C16.0959 156.584 16.3959 155.954 16.9959 155.486C17.6079 155.006 18.4179 154.766 19.4259 154.766C20.0619 154.766 20.6499 154.868 21.1899 155.072C21.7419 155.276 22.1979 155.57 22.5579 155.954L22.1439 156.8C21.3159 156.08 20.4099 155.72 19.4259 155.72C18.7299 155.72 18.1899 155.858 17.8059 156.134C17.4219 156.41 17.2299 156.794 17.2299 157.286C17.2299 157.694 17.3499 158.024 17.5899 158.276C17.8419 158.528 18.2259 158.714 18.7419 158.834L20.2899 159.212C21.9099 159.572 22.7199 160.37 22.7199 161.606C22.7199 162.362 22.4079 162.974 21.7839 163.442C21.1599 163.898 20.3199 164.126 19.2639 164.126ZM26.6666 155.864V161.228C26.6666 161.948 26.8046 162.446 27.0806 162.722C27.3566 162.998 27.7646 163.136 28.3046 163.136C28.6406 163.136 28.9646 163.082 29.2766 162.974V163.964C28.8926 164.06 28.5026 164.108 28.1066 164.108C27.3146 164.108 26.6906 163.886 26.2346 163.442C25.7906 162.998 25.5686 162.332 25.5686 161.444V155.864H23.7866V154.982H25.5686V152.588L26.6666 152.174V154.982H29.3306V155.864H26.6666ZM35.089 154.766C35.389 154.766 35.653 154.79 35.881 154.838L35.827 155.828C35.599 155.78 35.323 155.756 34.999 155.756C34.087 155.756 33.403 156.05 32.947 156.638C32.503 157.214 32.281 157.904 32.281 158.708V164H31.201V157.484C31.201 156.548 31.153 155.714 31.057 154.982H32.101L32.245 156.656C32.473 156.044 32.839 155.576 33.343 155.252C33.859 154.928 34.441 154.766 35.089 154.766ZM44.7304 154.982V164H43.6684V162.362C43.3804 162.938 42.9724 163.376 42.4444 163.676C41.9164 163.976 41.3104 164.126 40.6264 164.126C39.5704 164.126 38.7724 163.832 38.2324 163.244C37.6924 162.656 37.4224 161.786 37.4224 160.634V154.982H38.5024V160.562C38.5024 161.45 38.6824 162.104 39.0424 162.524C39.4024 162.944 39.9604 163.154 40.7164 163.154C41.6044 163.154 42.3124 162.878 42.8404 162.326C43.3684 161.762 43.6324 161.018 43.6324 160.094V154.982H44.7304ZM51.3785 164.126C50.5265 164.126 49.7825 163.934 49.1465 163.55C48.5105 163.166 48.0185 162.626 47.6705 161.93C47.3225 161.222 47.1485 160.406 47.1485 159.482C47.1485 158.546 47.3225 157.724 47.6705 157.016C48.0185 156.296 48.5165 155.744 49.1645 155.36C49.8125 154.964 50.5625 154.766 51.4145 154.766C52.0265 154.766 52.6085 154.874 53.1605 155.09C53.7245 155.294 54.1865 155.582 54.5465 155.954L54.1145 156.818C53.6465 156.434 53.1965 156.158 52.7645 155.99C52.3445 155.81 51.9065 155.72 51.4505 155.72C50.4785 155.72 49.7105 156.056 49.1465 156.728C48.5825 157.388 48.3005 158.306 48.3005 159.482C48.3005 160.634 48.5765 161.534 49.1285 162.182C49.6925 162.83 50.4665 163.154 51.4505 163.154C51.9065 163.154 52.3445 163.07 52.7645 162.902C53.1965 162.722 53.6465 162.446 54.1145 162.074L54.5465 162.92C54.1625 163.292 53.6825 163.586 53.1065 163.802C52.5425 164.018 51.9665 164.126 51.3785 164.126ZM58.0787 155.864V161.228C58.0787 161.948 58.2167 162.446 58.4927 162.722C58.7687 162.998 59.1767 163.136 59.7167 163.136C60.0527 163.136 60.3767 163.082 60.6887 162.974V163.964C60.3047 164.06 59.9147 164.108 59.5187 164.108C58.7267 164.108 58.1027 163.886 57.6467 163.442C57.2027 162.998 56.9807 162.332 56.9807 161.444V155.864H55.1987V154.982H56.9807V152.588L58.0787 152.174V154.982H60.7427V155.864H58.0787ZM62.6131 154.982H63.6931V164H62.6131V154.982ZM63.9091 151.256V152.66H62.4511V151.256H63.9091ZM70.2908 164.126C69.4628 164.126 68.7308 163.934 68.0948 163.55C67.4708 163.166 66.9848 162.62 66.6368 161.912C66.3008 161.204 66.1328 160.382 66.1328 159.446C66.1328 158.51 66.3008 157.688 66.6368 156.98C66.9848 156.272 67.4708 155.726 68.0948 155.342C68.7308 154.958 69.4628 154.766 70.2908 154.766C71.1068 154.766 71.8268 154.958 72.4508 155.342C73.0748 155.726 73.5548 156.272 73.8908 156.98C74.2388 157.688 74.4128 158.51 74.4128 159.446C74.4128 160.382 74.2388 161.204 73.8908 161.912C73.5548 162.62 73.0748 163.166 72.4508 163.55C71.8268 163.934 71.1068 164.126 70.2908 164.126ZM70.2728 163.154C71.2328 163.154 71.9708 162.836 72.4868 162.2C73.0148 161.552 73.2788 160.634 73.2788 159.446C73.2788 158.27 73.0148 157.358 72.4868 156.71C71.9588 156.05 71.2268 155.72 70.2908 155.72C69.3428 155.72 68.6048 156.05 68.0768 156.71C67.5488 157.358 67.2848 158.27 67.2848 159.446C67.2848 160.646 67.5428 161.564 68.0588 162.2C68.5748 162.836 69.3128 163.154 70.2728 163.154ZM81.0103 154.766C83.1823 154.766 84.2683 155.93 84.2683 158.258V164H83.1703V158.33C83.1703 157.43 82.9843 156.77 82.6123 156.35C82.2523 155.93 81.6823 155.72 80.9023 155.72C80.0023 155.72 79.2763 155.996 78.7243 156.548C78.1723 157.1 77.8963 157.844 77.8963 158.78V164H76.8163V157.484C76.8163 156.548 76.7683 155.714 76.6723 154.982H77.7163L77.8603 156.638C78.1363 156.026 78.5503 155.564 79.1023 155.252C79.6543 154.928 80.2903 154.766 81.0103 154.766ZM90.1565 164.126C88.6925 164.126 87.5345 163.724 86.6825 162.92L87.0785 162.074C87.5585 162.47 88.0385 162.752 88.5185 162.92C89.0105 163.088 89.5745 163.172 90.2105 163.172C90.9545 163.172 91.5185 163.046 91.9025 162.794C92.2985 162.53 92.4965 162.152 92.4965 161.66C92.4965 161.252 92.3645 160.934 92.1005 160.706C91.8485 160.466 91.4285 160.274 90.8405 160.13L89.3105 159.788C88.5905 159.62 88.0205 159.32 87.6005 158.888C87.1925 158.456 86.9885 157.952 86.9885 157.376C86.9885 156.584 87.2885 155.954 87.8885 155.486C88.5005 155.006 89.3105 154.766 90.3185 154.766C90.9545 154.766 91.5425 154.868 92.0825 155.072C92.6345 155.276 93.0905 155.57 93.4505 155.954L93.0365 156.8C92.2085 156.08 91.3025 155.72 90.3185 155.72C89.6225 155.72 89.0825 155.858 88.6985 156.134C88.3145 156.41 88.1225 156.794 88.1225 157.286C88.1225 157.694 88.2425 158.024 88.4825 158.276C88.7345 158.528 89.1185 158.714 89.6345 158.834L91.1825 159.212C92.8025 159.572 93.6125 160.37 93.6125 161.606C93.6125 162.362 93.3005 162.974 92.6765 163.442C92.0525 163.898 91.2125 164.126 90.1565 164.126ZM12.06 189.184V202H10.944V195.988H2.772V202H1.656V189.184H2.772V194.998H10.944V189.184H12.06ZM18.7869 202.126C17.9589 202.126 17.2269 201.934 16.5909 201.55C15.9669 201.166 15.4809 200.62 15.1329 199.912C14.7969 199.204 14.6289 198.382 14.6289 197.446C14.6289 196.51 14.7969 195.688 15.1329 194.98C15.4809 194.272 15.9669 193.726 16.5909 193.342C17.2269 192.958 17.9589 192.766 18.7869 192.766C19.6029 192.766 20.3229 192.958 20.9469 193.342C21.5709 193.726 22.0509 194.272 22.3869 194.98C22.7349 195.688 22.9089 196.51 22.9089 197.446C22.9089 198.382 22.7349 199.204 22.3869 199.912C22.0509 200.62 21.5709 201.166 20.9469 201.55C20.3229 201.934 19.6029 202.126 18.7869 202.126ZM18.7689 201.154C19.7289 201.154 20.4669 200.836 20.9829 200.2C21.5109 199.552 21.7749 198.634 21.7749 197.446C21.7749 196.27 21.5109 195.358 20.9829 194.71C20.4549 194.05 19.7229 193.72 18.7869 193.72C17.8389 193.72 17.1009 194.05 16.5729 194.71C16.0449 195.358 15.7809 196.27 15.7809 197.446C15.7809 198.646 16.0389 199.564 16.5549 200.2C17.0709 200.836 17.8089 201.154 18.7689 201.154ZM38.6525 192.982L35.3765 202H34.2425L31.5065 194.386L28.7525 202H27.6005L24.3425 192.982H25.5125L28.1765 200.686L30.9845 192.982H32.0825L34.8005 200.686L37.5365 192.982H38.6525ZM45.3514 192.982H46.4314V202H45.3514V192.982ZM46.6474 189.256V190.66H45.1894V189.256H46.6474ZM50.9771 193.864V199.228C50.9771 199.948 51.1151 200.446 51.3911 200.722C51.6671 200.998 52.0751 201.136 52.6151 201.136C52.9511 201.136 53.2751 201.082 53.5871 200.974V201.964C53.2031 202.06 52.8131 202.108 52.4171 202.108C51.6251 202.108 51.0011 201.886 50.5451 201.442C50.1011 200.998 49.8791 200.332 49.8791 199.444V193.864H48.0971V192.982H49.8791V190.588L50.9771 190.174V192.982H53.6411V193.864H50.9771ZM73.5275 192.982L70.2515 202H69.1175L66.3815 194.386L63.6275 202H62.4755L59.2175 192.982H60.3875L63.0515 200.686L65.8595 192.982H66.9575L69.6755 200.686L72.4115 192.982H73.5275ZM79.1326 202.126C78.3046 202.126 77.5726 201.934 76.9366 201.55C76.3126 201.166 75.8266 200.62 75.4786 199.912C75.1426 199.204 74.9746 198.382 74.9746 197.446C74.9746 196.51 75.1426 195.688 75.4786 194.98C75.8266 194.272 76.3126 193.726 76.9366 193.342C77.5726 192.958 78.3046 192.766 79.1326 192.766C79.9486 192.766 80.6686 192.958 81.2926 193.342C81.9166 193.726 82.3966 194.272 82.7326 194.98C83.0806 195.688 83.2546 196.51 83.2546 197.446C83.2546 198.382 83.0806 199.204 82.7326 199.912C82.3966 200.62 81.9166 201.166 81.2926 201.55C80.6686 201.934 79.9486 202.126 79.1326 202.126ZM79.1146 201.154C80.0746 201.154 80.8126 200.836 81.3286 200.2C81.8566 199.552 82.1206 198.634 82.1206 197.446C82.1206 196.27 81.8566 195.358 81.3286 194.71C80.8006 194.05 80.0686 193.72 79.1326 193.72C78.1846 193.72 77.4466 194.05 76.9186 194.71C76.3906 195.358 76.1266 196.27 76.1266 197.446C76.1266 198.646 76.3846 199.564 76.9006 200.2C77.4166 200.836 78.1546 201.154 79.1146 201.154ZM89.5461 192.766C89.8461 192.766 90.1101 192.79 90.3381 192.838L90.2841 193.828C90.0561 193.78 89.7801 193.756 89.4561 193.756C88.5441 193.756 87.8601 194.05 87.4041 194.638C86.9601 195.214 86.7381 195.904 86.7381 196.708V202H85.6581V195.484C85.6581 194.548 85.6101 193.714 85.5141 192.982H86.5581L86.7021 194.656C86.9301 194.044 87.2961 193.576 87.8001 193.252C88.3161 192.928 88.8981 192.766 89.5461 192.766ZM97.9815 202L93.0135 197.608V202H91.9335V188.752H93.0135V197.176L97.5495 192.982H98.9715L94.2555 197.32L99.4755 202H97.9815ZM103.657 202.126C102.193 202.126 101.035 201.724 100.183 200.92L100.579 200.074C101.059 200.47 101.539 200.752 102.019 200.92C102.511 201.088 103.075 201.172 103.711 201.172C104.455 201.172 105.019 201.046 105.403 200.794C105.799 200.53 105.997 200.152 105.997 199.66C105.997 199.252 105.865 198.934 105.601 198.706C105.349 198.466 104.929 198.274 104.341 198.13L102.811 197.788C102.091 197.62 101.521 197.32 101.101 196.888C100.693 196.456 100.489 195.952 100.489 195.376C100.489 194.584 100.789 193.954 101.389 193.486C102.001 193.006 102.811 192.766 103.819 192.766C104.455 192.766 105.043 192.868 105.583 193.072C106.135 193.276 106.591 193.57 106.951 193.954L106.537 194.8C105.709 194.08 104.803 193.72 103.819 193.72C103.123 193.72 102.583 193.858 102.199 194.134C101.815 194.41 101.623 194.794 101.623 195.286C101.623 195.694 101.743 196.024 101.983 196.276C102.235 196.528 102.619 196.714 103.135 196.834L104.683 197.212C106.303 197.572 107.113 198.37 107.113 199.606C107.113 200.362 106.801 200.974 106.177 201.442C105.553 201.898 104.713 202.126 103.657 202.126Z" fill="white"/>
<path d="M13.94 23.76V38H11.38V31.82H4.08V38H1.54V23.76H4.08V29.72H11.38V23.76H13.94ZM25.6883 33.08H18.7283C18.7816 34.16 19.0483 34.96 19.5283 35.48C20.0216 35.9867 20.7483 36.24 21.7083 36.24C22.8149 36.24 23.8416 35.88 24.7883 35.16L25.5083 36.88C25.0283 37.2667 24.4349 37.58 23.7283 37.82C23.0349 38.0467 22.3283 38.16 21.6083 38.16C19.9549 38.16 18.6549 37.6933 17.7083 36.76C16.7616 35.8267 16.2883 34.5467 16.2883 32.92C16.2883 31.8933 16.4949 30.98 16.9083 30.18C17.3216 29.38 17.9016 28.76 18.6483 28.32C19.3949 27.8667 20.2416 27.64 21.1883 27.64C22.5749 27.64 23.6683 28.0933 24.4683 29C25.2816 29.8933 25.6883 31.1267 25.6883 32.7V33.08ZM21.2483 29.44C20.5816 29.44 20.0349 29.64 19.6083 30.04C19.1949 30.4267 18.9283 30.9933 18.8083 31.74H23.5083C23.4283 30.98 23.1949 30.4067 22.8083 30.02C22.4349 29.6333 21.9149 29.44 21.2483 29.44ZM27.8053 23.28H30.2853V38H27.8053V23.28ZM38.7802 27.64C39.6468 27.64 40.4135 27.8667 41.0802 28.32C41.7602 28.76 42.2868 29.3867 42.6602 30.2C43.0468 31 43.2402 31.92 43.2402 32.96C43.2402 34 43.0535 34.9133 42.6802 35.7C42.3068 36.4867 41.7802 37.0933 41.1002 37.52C40.4335 37.9467 39.6602 38.16 38.7802 38.16C38.0468 38.16 37.3935 38.0067 36.8202 37.7C36.2468 37.38 35.8068 36.94 35.5002 36.38V42.32H33.0202V30.76C33.0202 29.6933 32.9668 28.74 32.8602 27.9H35.2002L35.4002 29.64C35.6668 29.0133 36.1002 28.5267 36.7002 28.18C37.3002 27.82 37.9935 27.64 38.7802 27.64ZM38.1002 36.2C38.9402 36.2 39.5868 35.92 40.0402 35.36C40.4935 34.8 40.7202 34 40.7202 32.96C40.7202 31.9067 40.4935 31.0867 40.0402 30.5C39.5868 29.9 38.9468 29.6 38.1202 29.6C37.2668 29.6 36.6135 29.8867 36.1602 30.46C35.7068 31.0333 35.4802 31.8533 35.4802 32.92C35.4802 33.9733 35.7068 34.7867 36.1602 35.36C36.6135 35.92 37.2602 36.2 38.1002 36.2Z" fill="white"/>
</svg>
